<?xml version="1.0" encoding="UTF-8"?>
<svg id="Calque_1" data-name="Calque 1" xmlns="http://www.w3.org/2000/svg" viewBox="0 0 50 50">
  <defs>
    <style>
      .cls-1 {
        fill: #fafafa;
      }

      .cls-2 {
        fill: #31006f;
      }
    </style>
  </defs>
  <rect class="cls-1" width="50" height="50" rx="7.77" ry="7.77"/>
  <g>
    <path class="cls-2" d="M10.94,16.07c.89,0,1.72,.16,2.49,.49,.77,.33,1.44,.79,2.03,1.36,.59,.58,1.05,1.25,1.38,2.02,.33,.77,.5,1.59,.5,2.48s-.17,1.7-.5,2.47c-.33,.78-.79,1.46-1.38,2.04-.59,.59-1.27,1.05-2.03,1.38-.77,.33-1.6,.49-2.49,.49h-3.84v5.12h-2.53v-11.5c0-.89,.17-1.72,.5-2.49,.33-.77,.79-1.44,1.37-2.02,.58-.58,1.26-1.03,2.03-1.36,.78-.33,1.6-.49,2.47-.49Zm1.51,9.92c.47-.2,.89-.47,1.24-.82,.35-.35,.63-.76,.82-1.23,.2-.47,.3-.97,.3-1.51s-.1-1.02-.3-1.49c-.2-.46-.48-.87-.82-1.22-.35-.35-.76-.62-1.24-.82-.48-.2-.98-.3-1.51-.3s-1.03,.1-1.49,.3c-.46,.2-.87,.47-1.23,.82-.35,.35-.62,.76-.82,1.22-.2,.46-.3,.96-.3,1.49v3.86h3.84c.53,0,1.03-.1,1.51-.3Z"/>
    <path class="cls-2" d="M34.93,33.29c-1.07-.43-2.05-1.08-2.91-1.94-.86-.86-1.5-1.83-1.92-2.89-.42-1.07-.63-2.18-.63-3.32s.21-2.25,.63-3.32c.41-1.06,1.06-2.03,1.92-2.89,.86-.86,1.84-1.51,2.91-1.94,1.08-.43,2.2-.65,3.32-.65s2.23,.22,3.31,.65c1.08,.43,2.06,1.08,2.92,1.94,0,0,.59,.59,.95,.95-.42,.43-1.48,1.51-1.91,1.94-.37-.36-.99-.96-.99-.96-.59-.59-1.26-1.04-2.01-1.33-.74-.3-1.51-.45-2.28-.45s-1.54,.15-2.27,.45c-.74,.3-1.42,.75-2.01,1.34-.59,.56-1.04,1.22-1.34,1.97-.29,.74-.44,1.51-.44,2.28s.15,1.54,.44,2.28c.3,.74,.75,1.42,1.34,2.01,1.19,1.19,2.63,1.78,4.29,1.78h0c.8,0,1.58-.15,2.32-.45,.74-.3,1.41-.75,1.98-1.35,0,0,.6-.59,.97-.94,.42,.43,1.49,1.51,1.91,1.94-.36,.36-.95,.95-.95,.95-.86,.86-1.84,1.51-2.92,1.94-1.08,.43-2.19,.65-3.31,.65h0c-1.12,0-2.23-.22-3.32-.65Z"/>
    <path class="cls-2" d="M24.39,33.37c-.25,.24-.5,.4-.73,.47-.19,.06-.49,.09-.9,.09h-3.03c-.84,0-1.4-.15-1.71-.46-.3-.3-.46-.88-.46-1.73v-.61c0-.44,.08-.78,.25-1.02,.13-.2,.41-.43,.83-.7l1.77-1.13c-.5-.45-.75-.92-.75-1.4v-.52c0-.63,.17-1.07,.51-1.31,.34-.24,.89-.37,1.65-.37h1.73c.81,0,1.37,.13,1.68,.39,.31,.26,.47,.75,.47,1.48v.48l-1.21,.23v-1.45h-3.53v1.34l4.48,3.67,2.15-2.02,.79,.76-2.08,1.97,2.94,2.4h-1.91l-1.9-1.56-1.04,1Zm-5.52-.62h4.48l1.2-1.11-3.31-2.65-2.36,1.68v2.08Z"/>
  </g>
</svg>